<?xml version="1.0" encoding="UTF-8" standalone="no"?>
<!DOCTYPE svg PUBLIC "-//W3C//DTD SVG 1.1//EN" "http://www.w3.org/Graphics/SVG/1.1/DTD/svg11.dtd">
<svg version="1.0" xmlns="http://www.w3.org/2000/svg"
 width="256.000000pt" height="256.000000pt" viewBox="0 0 256.000000 256.000000"
 preserveAspectRatio="xMidYMid meet">

  <g transform="translate(0.000000,256.000000) scale(0.100000,-0.100000)"
  fill="#000000" stroke="none">
    <path d="M1057 1792 c-8 -9 -56 -75 -107 -147 -141 -198 -163 -218 -314 -279
-95 -38 -188 -99 -227 -148 -63 -80 -180 -240 -232 -318 -65 -95 -124 -179
-156 -218 -28 -35 -30 -149 -4 -194 25 -41 338 -263 384 -272 63 -11 101 14
177 117 123 166 326 456 363 516 42 70 57 132 64 264 5 104 28 185 68 246 76
115 207 291 207 280 1 -19 32 -55 56 -63 11 -4 49 -60 94 -143 139 -253 131
-234 137 -330 7 -110 38 -185 120 -297 33 -44 126 -172 207 -283 80 -111 160
-212 178 -224 38 -28 94 -28 135 -2 15 10 94 66 174 125 81 60 154 108 163
108 13 0 16 13 16 75 0 68 -2 76 -22 86 -13 6 -66 70 -118 142 -326 455 -349
479 -491 536 -67 27 -84 40 -173 133 -152 160 -200 217 -203 246 -5 34 -37 62
-73 62 -29 0 -158 -85 -183 -121 -17 -24 -14 -25 -106 44 -97 72 -115 80 -134
59z m448 -54 c0 -20 -134 -120 -155 -116 -34 7 -14 44 49 91 64 49 106 59 106
25z m-349 -44 l64 -46 -38 -53 c-20 -30 -40 -54 -44 -55 -11 0 -127 84 -127
93 -1 8 71 107 77 107 2 0 32 -21 68 -46z m574 -230 c88 -92 102 -102 178
-133 135 -55 175 -89 272 -231 8 -12 29 -41 46 -64 17 -22 86 -117 153 -209
119 -164 122 -169 119 -215 l-3 -47 -168 -123 c-190 -138 -208 -144 -258 -90
-57 60 -57 60 38 129 48 35 102 76 120 92 57 50 51 68 -100 274 -132 182 -163
212 -205 199 -11 -4 -68 -42 -127 -86 -60 -43 -112 -77 -117 -74 -24 15 -50
93 -59 177 -14 138 -22 163 -92 287 -35 63 -78 142 -96 175 l-33 60 23 15 c12
8 41 29 63 47 l41 32 55 -57 c30 -32 98 -103 150 -158z m-633 30 c2 -7 -12
-34 -31 -62 -77 -106 -98 -175 -111 -357 -6 -76 -38 -189 -65 -224 l-16 -23
-70 72 c-103 108 -210 181 -342 233 -41 16 -42 18 -28 40 35 53 196 157 244
157 8 0 41 16 74 35 68 40 151 118 193 182 l27 43 60 -42 c33 -24 62 -48 65
-54z m-659 -409 c60 -18 98 -39 197 -108 82 -58 113 -85 167 -149 l39 -48
-120 -169 -121 -170 -44 13 c-105 32 -315 182 -388 279 l-27 34 35 48 c19 27
34 54 34 60 0 7 9 24 21 39 l20 26 77 -59 c85 -64 136 -94 146 -84 16 17 -2
37 -94 104 -54 41 -99 76 -99 79 0 3 6 14 14 24 13 18 16 18 39 2 14 -9 32
-16 41 -16 24 0 18 36 -10 54 -22 14 -23 19 -13 36 15 24 20 24 86 5z m1525
-102 c45 -51 247 -338 247 -352 0 -15 -216 -179 -224 -170 -38 47 -116 158
-116 165 1 5 37 35 81 67 44 32 79 63 76 70 -8 26 -40 16 -113 -39 l-78 -57
-18 23 c-19 23 -19 24 6 39 30 18 37 33 26 51 -7 11 -15 10 -44 -5 -19 -11
-37 -17 -39 -15 -2 3 -16 22 -31 42 l-28 37 109 80 c59 44 113 81 119 81 6 0
18 -8 27 -17z m-1641 -465 c60 -43 113 -70 198 -104 22 -9 40 -20 40 -24 0
-17 -82 -111 -105 -120 -12 -5 -33 -6 -46 -3 -13 3 -99 59 -190 124 l-167 118
-6 46 c-9 54 -2 77 33 127 l26 37 77 -79 c43 -43 106 -98 140 -122z"/>
    <path d="M223 853 c-7 -17 40 -63 65 -63 27 0 25 32 -4 56 -34 28 -52 30 -61
7z"/>
    <path d="M2026 677 c-29 -24 -32 -57 -4 -57 24 1 71 47 65 64 -9 22 -27 20
-61 -7z"/>
  </g>
</svg>